<?xml version="1.0" encoding="UTF-8" standalone="no"?><!DOCTYPE svg PUBLIC "-//W3C//DTD SVG 1.1//EN" "http://www.w3.org/Graphics/SVG/1.1/DTD/svg11.dtd"><!-- Generated by graphviz version 2.40.1 (20161225.0304)
 --><!-- Title: G Pages: 1 --><svg xmlns="http://www.w3.org/2000/svg" xmlns:xlink="http://www.w3.org/1999/xlink" width="1977pt" height="361pt" viewBox="0.00 0.00 1977.19 361.20">
<g id="graph0" class="graph" transform="scale(1 1) rotate(0) translate(7.2 354)">
<title>G</title>
<polygon fill="#ffffff" stroke="transparent" points="-7.2,7.2 -7.2,-354 1969.9907,-354 1969.9907,7.2 -7.2,7.2"/>
<!-- program -->
<g id="node1" class="node">
<title>program</title>
<ellipse fill="none" stroke="#000000" cx="54.2166" cy="-170" rx="54.434" ry="18"/>
<text text-anchor="start" x="22.9168" y="-166.8" font-family="Times,serif" font-style="italic" font-size="14.00" fill="#000000">P</text>
<text text-anchor="start" x="30.6994" y="-166.8" font-family="Times,serif" font-size="14.00" fill="#000000">: program</text>
</g>
<!-- edb -->
<g id="node2" class="node">
<title>edb</title>
<ellipse fill="none" stroke="#000000" cx="207.9896" cy="-224" rx="27" ry="18"/>
<text text-anchor="start" x="198.66" y="-220.8" font-family="Times,serif" font-style="italic" font-size="14.00" fill="#000000">D</text>
<text text-anchor="start" x="208.7666" y="-220.8" font-family="Times,serif" font-style="italic" baseline-shift="sub" font-size="14.00" fill="#000000">E</text>
</g>
<!-- program&#45;&gt;edb -->
<g id="edge1" class="edge">
<title>program-&gt;edb</title>
<path fill="none" stroke="#000000" d="M91.8337,-183.2099C116.9972,-192.0465 149.8318,-203.5769 174.1689,-212.1233"/>
<polygon fill="#000000" stroke="#000000" points="173.1072,-215.4599 183.702,-215.471 175.4265,-208.8553 173.1072,-215.4599"/>
</g>
<!-- idb -->
<g id="node3" class="node">
<title>idb</title>
<ellipse fill="none" stroke="#000000" cx="207.9896" cy="-170" rx="27" ry="18"/>
<text text-anchor="start" x="200.606" y="-166.8" font-family="Times,serif" font-style="italic" font-size="14.00" fill="#000000">D</text>
<text text-anchor="start" x="210.7126" y="-166.8" font-family="Times,serif" font-style="italic" baseline-shift="sub" font-size="14.00" fill="#000000">I</text>
</g>
<!-- program&#45;&gt;idb -->
<g id="edge2" class="edge">
<title>program-&gt;idb</title>
<path fill="none" stroke="#000000" d="M108.8641,-170C129.3092,-170 152.0497,-170 170.5873,-170"/>
<polygon fill="#000000" stroke="#000000" points="170.6891,-173.5001 180.689,-170 170.689,-166.5001 170.6891,-173.5001"/>
</g>
<!-- query -->
<g id="node4" class="node">
<title>query</title>
<ellipse fill="none" stroke="#000000" cx="207.9896" cy="-116" rx="42.8997" ry="18"/>
<text text-anchor="start" x="184.8567" y="-112.8" font-family="Times,serif" font-style="italic" font-size="14.00" fill="#000000">q</text>
<text text-anchor="start" x="191.8567" y="-112.8" font-family="Times,serif" font-size="14.00" fill="#000000">: query</text>
</g>
<!-- program&#45;&gt;query -->
<g id="edge3" class="edge">
<title>program-&gt;query</title>
<path fill="none" stroke="#000000" d="M91.8337,-156.7901C114.0846,-148.9763 142.3335,-139.0563 165.4015,-130.9555"/>
<polygon fill="#000000" stroke="#000000" points="166.6625,-134.2223 174.9379,-127.6066 164.3431,-127.6177 166.6625,-134.2223"/>
<text text-anchor="start" x="126.4331" y="-150.2" font-family="Times,serif" font-style="italic" font-size="14.00" fill="#000000">Q</text>
<text text-anchor="start" x="136.5397" y="-150.2" font-family="Times,serif" font-size="14.00" fill="#000000"> *</text>
</g>
<!-- relation -->
<g id="node5" class="node">
<title>relation</title>
<ellipse fill="none" stroke="#000000" cx="921.7529" cy="-165" rx="52.1417" ry="18"/>
<text text-anchor="start" x="892.0085" y="-161.8" font-family="Times,serif" font-style="italic" font-size="14.00" fill="#000000">R</text>
<text text-anchor="start" x="901.3451" y="-161.8" font-family="Times,serif" font-size="14.00" fill="#000000">: relation</text>
</g>
<!-- edb&#45;&gt;relation -->
<g id="edge5" class="edge">
<title>edb-&gt;relation</title>
<path fill="none" stroke="#000000" d="M232.9331,-231.6602C260.151,-239.3296 305.1436,-250 344.7913,-250 344.7913,-250 344.7913,-250 782.9107,-250 829.2708,-250 873.2233,-215.1027 898.8201,-190.0287"/>
<polygon fill="#000000" stroke="#000000" points="901.6124,-192.1828 906.1569,-182.6121 896.636,-187.2598 901.6124,-192.1828"/>
<text text-anchor="middle" x="556.7185" y="-254.2" font-family="Times,serif" font-size="14.00" fill="#000000">*</text>
</g>
<!-- idb&#45;&gt;relation -->
<g id="edge6" class="edge">
<title>idb-&gt;relation</title>
<path fill="none" stroke="#000000" d="M230.1605,-180.7193C256.7487,-192.5677 302.9727,-210 344.7913,-210 344.7913,-210 344.7913,-210 782.9107,-210 818.3838,-210 856.5802,-196.5429 883.9132,-184.3467"/>
<polygon fill="#000000" stroke="#000000" points="885.4894,-187.4742 893.106,-180.1095 882.5591,-181.117 885.4894,-187.4742"/>
<text text-anchor="middle" x="556.7185" y="-214.2" font-family="Times,serif" font-size="14.00" fill="#000000">*</text>
</g>
<!-- rule -->
<g id="node12" class="node">
<title>rule</title>
<ellipse fill="none" stroke="#000000" cx="344.7913" cy="-109" rx="39.3836" ry="18"/>
<text text-anchor="start" x="324.3828" y="-105.8" font-family="Times,serif" font-style="italic" font-size="14.00" fill="#000000">λ</text>
<text text-anchor="start" x="336.0434" y="-105.8" font-family="Times,serif" font-size="14.00" fill="#000000">: rule</text>
</g>
<!-- idb&#45;&gt;rule -->
<g id="edge7" class="edge">
<title>idb-&gt;rule</title>
<path fill="none" stroke="#000000" d="M230.5796,-159.9271C251.3485,-150.6662 282.5458,-136.7553 307.0895,-125.8113"/>
<polygon fill="#000000" stroke="#000000" points="308.764,-128.8968 316.4718,-121.6277 305.9133,-122.5036 308.764,-128.8968"/>
<text text-anchor="start" x="268.9394" y="-147.2" font-family="Times,serif" font-style="italic" font-size="14.00" fill="#000000">Λ</text>
<text text-anchor="start" x="277.1" y="-147.2" font-family="Times,serif" font-size="14.00" fill="#000000"> *</text>
</g>
<!-- atom -->
<g id="node6" class="node">
<title>atom</title>
<ellipse fill="none" stroke="#000000" cx="1116.0605" cy="-165" rx="42.3337" ry="18"/>
<text text-anchor="start" x="1093.314" y="-161.8" font-family="Times,serif" font-style="italic" font-size="14.00" fill="#000000">A</text>
<text text-anchor="start" x="1103.4206" y="-161.8" font-family="Times,serif" font-size="14.00" fill="#000000">: atom</text>
</g>
<!-- query&#45;&gt;atom -->
<g id="edge4" class="edge">
<title>query-&gt;atom</title>
<path fill="none" stroke="#000000" d="M219.1964,-98.4963C239.9998,-68.3893 287.7046,-10 344.7913,-10 344.7913,-10 344.7913,-10 921.7529,-10 971.3878,-10 991.2534,-9.4773 1028.7486,-42 1043.17,-54.5088 1036.5895,-64.8372 1046.7486,-81 1060.3238,-102.5977 1078.8424,-124.7624 1093.323,-140.8972"/>
<polygon fill="#000000" stroke="#000000" points="1090.7473,-143.2671 1100.0679,-148.3047 1095.9231,-138.5542 1090.7473,-143.2671"/>
</g>
<!-- relation&#45;&gt;atom -->
<g id="edge22" class="edge">
<title>relation-&gt;atom</title>
<path fill="none" stroke="#000000" d="M973.8237,-165C1001.4351,-165 1035.2889,-165 1063.0413,-165"/>
<polygon fill="#000000" stroke="#000000" points="1063.3532,-168.5001 1073.3532,-165 1063.3531,-161.5001 1063.3532,-168.5001"/>
<text text-anchor="middle" x="1010.2861" y="-169.2" font-family="Times,serif" font-size="14.00" fill="#000000">facts *</text>
</g>
<!-- schema -->
<g id="node9" class="node">
<title>schema</title>
<ellipse fill="none" stroke="#000000" cx="1116.0605" cy="-219" rx="50.4181" ry="18"/>
<text text-anchor="start" x="1087.4844" y="-215.8" font-family="Times,serif" font-style="italic" font-size="14.00" fill="#000000">S</text>
<text text-anchor="start" x="1095.267" y="-215.8" font-family="Times,serif" font-size="14.00" fill="#000000">: schema</text>
</g>
<!-- relation&#45;&gt;schema -->
<g id="edge25" class="edge">
<title>relation-&gt;schema</title>
<path fill="none" stroke="#000000" d="M960.9727,-176.9918C971.0117,-179.9959 981.8024,-183.1682 991.8236,-186 1015.9563,-192.8195 1042.8405,-200.0105 1065.4108,-205.9329"/>
<polygon fill="#000000" stroke="#000000" points="1064.5643,-209.3291 1075.1245,-208.4735 1066.3356,-202.5569 1064.5643,-209.3291"/>
</g>
<!-- predicate -->
<g id="node30" class="node">
<title>predicate</title>
<polygon fill="none" stroke="#000000" points="1710.2363,-254.3008 1610.2895,-254.3008 1610.2895,-229.6992 1710.2363,-229.6992 1710.2363,-254.3008"/>
<text text-anchor="start" x="1618.2762" y="-238.8" font-family="Times,serif" font-style="italic" font-size="14.00" fill="#000000">p</text>
<text text-anchor="start" x="1625.2762" y="-238.8" font-family="Times,serif" font-size="14.00" fill="#000000">∊</text>
<text text-anchor="start" x="1635.7762" y="-238.8" font-family="Times,serif" font-style="italic" font-size="14.00" fill="#000000">P</text>
<text text-anchor="start" x="1643.5588" y="-238.8" font-family="Times,serif" font-size="14.00" fill="#000000">: predicate</text>
</g>
<!-- relation&#45;&gt;predicate -->
<g id="edge21" class="edge">
<title>relation-&gt;predicate</title>
<path fill="none" stroke="#000000" stroke-dasharray="5,2" d="M931.5541,-182.972C956.3386,-225.7364 1026.0002,-330 1116.0605,-330 1116.0605,-330 1116.0605,-330 1492.7213,-330 1556.7891,-330 1620.4638,-278.941 1647.1712,-254.6083"/>
<text text-anchor="middle" x="1308.9439" y="-334.2" font-family="Times,serif" font-size="14.00" fill="#000000">derived</text>
</g>
<!-- term -->
<g id="node18" class="node">
<title>term</title>
<ellipse fill="none" stroke="#000000" cx="1308.9439" cy="-93" rx="36.5308" ry="18"/>
<text text-anchor="start" x="1290.4751" y="-89.8" font-family="Times,serif" font-style="italic" font-size="14.00" fill="#000000">t</text>
<text text-anchor="start" x="1294.3657" y="-89.8" font-family="Times,serif" font-size="14.00" fill="#000000">: term</text>
</g>
<!-- atom&#45;&gt;term -->
<g id="edge23" class="edge">
<title>atom-&gt;term</title>
<path fill="none" stroke="#000000" d="M1147.9812,-152.9752C1164.5081,-146.7578 1185.0177,-139.0552 1203.3724,-132.2 1225.3079,-124.0074 1249.8254,-114.9007 1269.7079,-107.5283"/>
<polygon fill="#000000" stroke="#000000" points="1271.1936,-110.7103 1279.3537,-103.9529 1268.7606,-104.1467 1271.1936,-110.7103"/>
<text text-anchor="start" x="1204.2824" y="-138.2" font-family="Times,serif" font-size="14.00" fill="#000000">t</text>
<text text-anchor="start" x="1208.173" y="-138.2" font-family="Times,serif" font-style="italic" baseline-shift="sub" font-size="14.00" fill="#000000">i</text>
<text text-anchor="start" x="1212.0636" y="-138.2" font-family="Times,serif" font-size="14.00" fill="#000000"> +</text>
</g>
<!-- atom&#45;&gt;predicate -->
<g id="edge24" class="edge">
<title>atom-&gt;predicate</title>
<path fill="none" stroke="#000000" d="M1158.0808,-168.0001C1236.1077,-173.9738 1408.4749,-189.0629 1551.7625,-215 1569.6457,-218.2371 1588.9606,-222.7178 1606.2681,-227.0995"/>
<polygon fill="#000000" stroke="#000000" points="1605.6435,-230.5528 1616.2004,-229.6577 1607.3895,-223.774 1605.6435,-230.5528"/>
</g>
<!-- comparison -->
<g id="node7" class="node">
<title>comparison</title>
<ellipse fill="#d3d3d3" stroke="#000000" cx="1116.0605" cy="-47" rx="69.1243" ry="25.4118"/>
<text text-anchor="start" x="1075.0496" y="-49.4" font-family="Times,serif" font-style="italic" font-size="14.00" fill="#000000">L</text>
<text text-anchor="start" x="1083.6022" y="-49.4" font-family="Times,serif" font-style="italic" baseline-shift="sub" font-size="14.00" fill="#000000">θ</text>
<text text-anchor="start" x="1092.9234" y="-49.4" font-family="Times,serif" font-size="14.00" fill="#000000">: arithmetic</text>
<text text-anchor="start" x="1099.7344" y="-35.4" font-family="Times,serif" font-size="14.00" fill="#000000">literal</text>
</g>
<!-- operator -->
<g id="node8" class="node">
<title>operator</title>
<ellipse fill="#d3d3d3" stroke="#000000" cx="1308.9439" cy="-18" rx="54.9733" ry="18"/>
<text text-anchor="start" x="1277.2675" y="-14.8" font-family="Times,serif" font-style="italic" font-size="14.00" fill="#000000">θ</text>
<text text-anchor="start" x="1286.5887" y="-14.8" font-family="Times,serif" font-size="14.00" fill="#000000">: operator</text>
</g>
<!-- comparison&#45;&gt;operator -->
<g id="edge20" class="edge">
<title>comparison:se-&gt;operator:w</title>
<path fill="none" stroke="#000000" d="M1140.0605,-23C1173.4361,10.3756 1199.4955,-14.0972 1243.8699,-17.599"/>
<polygon fill="#000000" stroke="#000000" points="1243.8125,-21.0994 1253.9439,-18 1244.091,-14.1049 1243.8125,-21.0994"/>
</g>
<!-- comparison&#45;&gt;term -->
<g id="edge18" class="edge">
<title>comparison-&gt;term</title>
<path fill="none" stroke="#000000" d="M1173.312,-61.6285C1183.3217,-64.1281 1193.6433,-66.6687 1203.3724,-69 1223.8244,-73.9007 1246.566,-79.1022 1265.6887,-83.4055"/>
<polygon fill="#000000" stroke="#000000" points="1265.0906,-86.8582 1275.6142,-85.6316 1266.6226,-80.0279 1265.0906,-86.8582"/>
<text text-anchor="start" x="1203.7574" y="-79.2" font-family="Times,serif" font-style="italic" font-size="14.00" fill="#000000">t</text>
<text text-anchor="start" x="1207.648" y="-79.2" font-family="Times,serif" font-style="italic" baseline-shift="sub" font-size="14.00" fill="#000000">lhs</text>
</g>
<!-- comparison&#45;&gt;term -->
<g id="edge19" class="edge">
<title>comparison-&gt;term</title>
<path fill="none" stroke="#000000" d="M1184.588,-42.8526C1197.9311,-43.417 1211.7024,-44.978 1224.3682,-48.2 1243.7524,-53.1311 1263.607,-63.3302 1279.2037,-72.7529"/>
<polygon fill="#000000" stroke="#000000" points="1277.5246,-75.8308 1287.859,-78.1654 1281.236,-69.8957 1277.5246,-75.8308"/>
<text text-anchor="start" x="1203.3724" y="-54.2" font-family="Times,serif" font-style="italic" font-size="14.00" fill="#000000">t</text>
<text text-anchor="start" x="1207.263" y="-54.2" font-family="Times,serif" font-style="italic" baseline-shift="sub" font-size="14.00" fill="#000000">rhs</text>
</g>
<!-- functdep -->
<g id="node10" class="node">
<title>functdep</title>
<ellipse fill="#d3d3d3" stroke="#000000" cx="1308.9439" cy="-269" rx="66.6514" ry="25.4118"/>
<text text-anchor="start" x="1269.8678" y="-271.4" font-family="Times,serif" font-style="italic" font-size="14.00" fill="#000000">𝜑</text>
<text text-anchor="start" x="1283.8678" y="-271.4" font-family="Times,serif" font-size="14.00" fill="#000000">: functional</text>
<text text-anchor="start" x="1275.5147" y="-257.4" font-family="Times,serif" font-size="14.00" fill="#000000">dependency</text>
</g>
<!-- schema&#45;&gt;functdep -->
<g id="edge29" class="edge">
<title>schema-&gt;functdep</title>
<path fill="none" stroke="#000000" d="M1156.9661,-229.6037C1182.191,-236.1426 1215.1051,-244.6747 1243.8503,-252.1262"/>
<polygon fill="#000000" stroke="#000000" points="1243.2662,-255.5904 1253.8245,-254.7117 1245.0228,-248.8144 1243.2662,-255.5904"/>
<text text-anchor="middle" x="1213.8703" y="-250.2" font-family="Times,serif" font-size="14.00" fill="#000000">*</text>
</g>
<!-- attribute -->
<g id="node11" class="node">
<title>attribute</title>
<ellipse fill="none" stroke="#000000" cx="1492.7213" cy="-242" rx="59.0824" ry="18"/>
<text text-anchor="start" x="1457.9243" y="-238.8" font-family="Times,serif" font-style="italic" font-size="14.00" fill="#000000">α</text>
<text text-anchor="start" x="1469.5849" y="-238.8" font-family="Times,serif" font-size="14.00" fill="#000000">: atttribute</text>
</g>
<!-- schema&#45;&gt;attribute -->
<g id="edge26" class="edge">
<title>schema-&gt;attribute</title>
<path fill="none" stroke="#000000" d="M1165.9484,-215.8039C1218.2977,-213.1611 1302.9122,-210.9023 1375.5195,-218.2 1395.8385,-220.2422 1417.8446,-224.2283 1437.242,-228.3632"/>
<polygon fill="#000000" stroke="#000000" points="1436.6076,-231.8072 1447.1251,-230.5295 1438.1064,-224.9695 1436.6076,-231.8072"/>
<text text-anchor="start" x="1295.471" y="-223.2" font-family="Times,serif" font-style="italic" font-size="14.00" fill="#000000">α</text>
<text text-anchor="start" x="1307.1316" y="-223.2" font-family="Times,serif" font-style="italic" baseline-shift="sub" font-size="14.00" fill="#000000">i</text>
<text text-anchor="start" x="1311.0222" y="-223.2" font-family="Times,serif" font-size="14.00" fill="#000000"> +</text>
</g>
<!-- functdep&#45;&gt;attribute -->
<g id="edge30" class="edge">
<title>functdep-&gt;attribute</title>
<path fill="none" stroke="#000000" d="M1357.5884,-251.5913C1369.214,-248.1508 1381.6874,-245.0378 1393.5195,-243.2 1403.2846,-241.6833 1413.6555,-240.7861 1423.8701,-240.307"/>
<polygon fill="#000000" stroke="#000000" points="1424.1302,-243.8003 1434.0045,-239.9598 1423.8904,-236.8044 1424.1302,-243.8003"/>
<text text-anchor="start" x="1393.5195" y="-248.2" font-family="Times,serif" font-style="italic" font-size="14.00" fill="#000000">α</text>
<text text-anchor="start" x="1405.1801" y="-248.2" font-family="Times,serif" font-size="14.00" fill="#000000"> *</text>
</g>
<!-- functdep&#45;&gt;attribute -->
<g id="edge31" class="edge">
<title>functdep-&gt;attribute</title>
<path fill="none" stroke="#000000" d="M1374.8879,-264.9499C1388.4237,-263.6953 1402.5469,-262.0766 1415.6801,-260 1422.8621,-258.8644 1430.3681,-257.4287 1437.7571,-255.8657"/>
<polygon fill="#000000" stroke="#000000" points="1438.7059,-259.2407 1447.719,-253.6715 1437.2002,-252.4045 1438.7059,-259.2407"/>
<text text-anchor="start" x="1393.5195" y="-267.2" font-family="Times,serif" font-style="italic" font-size="14.00" fill="#000000">β</text>
<text text-anchor="start" x="1405.1801" y="-267.2" font-family="Times,serif" font-size="14.00" fill="#000000"> *</text>
</g>
<!-- type -->
<g id="node29" class="node">
<title>type</title>
<polygon fill="none" stroke="#000000" points="1841.2744,-197.3008 1763.64,-197.3008 1763.64,-172.6992 1841.2744,-172.6992 1841.2744,-197.3008"/>
<text text-anchor="start" x="1771.5487" y="-181.8" font-family="Times,serif" font-style="italic" font-size="14.00" fill="#000000">γ</text>
<text text-anchor="start" x="1783.2093" y="-181.8" font-family="Times,serif" font-size="14.00" fill="#000000">∊</text>
<text text-anchor="start" x="1793.7093" y="-181.8" font-family="Times,serif" font-style="italic" font-size="14.00" fill="#000000">Γ</text>
<text text-anchor="start" x="1801.8699" y="-181.8" font-family="Times,serif" font-size="14.00" fill="#000000">: type</text>
</g>
<!-- attribute&#45;&gt;type -->
<g id="edge28" class="edge">
<title>attribute-&gt;type</title>
<path fill="none" stroke="#000000" d="M1541.0696,-231.6288C1557.8024,-228.1309 1576.6921,-224.2838 1593.9771,-221 1648.4815,-210.6452 1711.2458,-199.9769 1753.5485,-192.9699"/>
<polygon fill="#000000" stroke="#000000" points="1754.2828,-196.3961 1763.5789,-191.3136 1753.1423,-189.4897 1754.2828,-196.3961"/>
</g>
<!-- attribute&#45;&gt;predicate -->
<g id="edge27" class="edge">
<title>attribute-&gt;predicate</title>
<path fill="none" stroke="#000000" d="M1551.7902,-242C1567.4013,-242 1584.2694,-242 1599.9456,-242"/>
<polygon fill="#000000" stroke="#000000" points="1600.0499,-245.5001 1610.0499,-242 1600.0499,-238.5001 1600.0499,-245.5001"/>
<text text-anchor="middle" x="1572.8698" y="-246.2" font-family="Times,serif" font-size="14.00" fill="#000000">?</text>
</g>
<!-- rule&#45;&gt;relation -->
<g id="edge8" class="edge">
<title>rule-&gt;relation</title>
<path fill="none" stroke="#000000" stroke-dasharray="5,2" d="M364.583,-124.5991C387.6416,-141.1691 427.5498,-165 466.3547,-165 466.3547,-165 466.3547,-165 782.9107,-165 808.0096,-165 835.6606,-165 859.6354,-165"/>
<polygon fill="#000000" stroke="#000000" points="859.6671,-168.5001 869.6671,-165 859.667,-161.5001 859.6671,-168.5001"/>
<text text-anchor="middle" x="648.1658" y="-169.2" font-family="Times,serif" font-size="14.00" fill="#000000">infers</text>
</g>
<!-- head -->
<g id="node13" class="node">
<title>head</title>
<ellipse fill="none" stroke="#000000" cx="466.3547" cy="-109" rx="29.0356" ry="18"/>
<text text-anchor="middle" x="466.3547" y="-104.8" font-family="Times,serif" font-size="14.00" fill="#000000">head</text>
</g>
<!-- rule&#45;&gt;head -->
<g id="edge9" class="edge">
<title>rule-&gt;head</title>
<path fill="none" stroke="#000000" d="M384.2595,-109C397.8498,-109 413.0679,-109 426.6751,-109"/>
<polygon fill="#000000" stroke="#000000" points="426.713,-112.5001 436.7129,-109 426.7129,-105.5001 426.713,-112.5001"/>
<text text-anchor="middle" x="410.5352" y="-113.2" font-family="Times,serif" font-size="14.00" fill="#000000">?/*</text>
</g>
<!-- body -->
<g id="node14" class="node">
<title>body</title>
<ellipse fill="none" stroke="#000000" cx="648.1658" cy="-59" rx="30.2015" ry="18"/>
<text text-anchor="middle" x="648.1658" y="-54.8" font-family="Times,serif" font-size="14.00" fill="#000000">body</text>
</g>
<!-- rule&#45;&gt;body -->
<g id="edge11" class="edge">
<title>rule-&gt;body</title>
<path fill="none" stroke="#000000" d="M368.4512,-94.4016C386.5197,-84.107 412.4291,-71.1359 437.0878,-65.2 495.206,-51.2098 564.9208,-52.5261 607.8817,-55.326"/>
<polygon fill="#000000" stroke="#000000" points="607.7183,-58.8231 617.9413,-56.041 608.2147,-51.8407 607.7183,-58.8231"/>
<text text-anchor="middle" x="466.3547" y="-70.2" font-family="Times,serif" font-size="14.00" fill="#000000">?</text>
</g>
<!-- head&#45;&gt;atom -->
<g id="edge10" class="edge">
<title>head-&gt;atom</title>
<path fill="none" stroke="#000000" d="M495.7775,-110.9996C541.3261,-113.9179 631.6689,-119 708.4351,-119 708.4351,-119 708.4351,-119 921.7529,-119 975.6923,-119 1035.8437,-135.9931 1074.7298,-149.3227"/>
<polygon fill="#000000" stroke="#000000" points="1074.0307,-152.7865 1084.6255,-152.7936 1076.3476,-146.181 1074.0307,-152.7865"/>
<text text-anchor="start" x="770.2148" y="-124.2" font-family="Times,serif" font-style="italic" font-size="14.00" fill="#000000">A</text>
<text text-anchor="start" x="780.3214" y="-124.2" font-family="Times,serif" font-style="italic" baseline-shift="sub" font-size="14.00" fill="#000000">i</text>
<text text-anchor="start" x="784.212" y="-124.2" font-family="Times,serif" font-size="14.00" fill="#000000"> +</text>
</g>
<!-- head&#45;&gt;body -->
<g id="edge13" class="edge">
<title>head-&gt;body</title>
<path fill="none" stroke="#000000" stroke-dasharray="5,2" d="M490.6346,-98.5307C497.942,-95.6014 506.036,-92.5732 513.6216,-90.2 549.3212,-79.031 591.4733,-69.8885 618.9573,-64.4502"/>
<text text-anchor="middle" x="556.7185" y="-95.2" font-family="Times,serif" font-size="14.00" fill="#000000">|head|+|tail|&gt;=1</text>
</g>
<!-- literal -->
<g id="node15" class="node">
<title>literal</title>
<ellipse fill="none" stroke="#000000" cx="782.9107" cy="-59" rx="44.6135" ry="18"/>
<text text-anchor="start" x="758.613" y="-55.8" font-family="Times,serif" font-style="italic" font-size="14.00" fill="#000000">L</text>
<text text-anchor="start" x="767.1656" y="-55.8" font-family="Times,serif" font-size="14.00" fill="#000000">: literal</text>
</g>
<!-- body&#45;&gt;literal -->
<g id="edge12" class="edge">
<title>body-&gt;literal</title>
<path fill="none" stroke="#000000" d="M678.7415,-59C693.2737,-59 711.1007,-59 727.872,-59"/>
<polygon fill="#000000" stroke="#000000" points="728.1392,-62.5001 738.1391,-59 728.1391,-55.5001 728.1392,-62.5001"/>
<text text-anchor="start" x="696.5162" y="-64.2" font-family="Times,serif" font-style="italic" font-size="14.00" fill="#000000">L</text>
<text text-anchor="start" x="705.0688" y="-64.2" font-family="Times,serif" font-style="italic" baseline-shift="sub" font-size="14.00" fill="#000000">i</text>
<text text-anchor="start" x="708.9594" y="-64.2" font-family="Times,serif" font-size="14.00" fill="#000000"> +</text>
</g>
<!-- literal_xor -->
<g id="node16" class="node">
<title>literal_xor</title>
<polygon fill="#d3d3d3" stroke="#000000" points="921.7529,-48.5 918.2529,-45 921.7529,-41.5 925.2529,-45 921.7529,-48.5"/>
</g>
<!-- literal&#45;&gt;literal_xor -->
<g id="edge14" class="edge">
<title>literal-&gt;literal_xor</title>
<path fill="none" stroke="#000000" d="M826.4603,-54.6087C854.6328,-51.768 889.4387,-48.2584 908.2122,-46.3654"/>
<polygon fill="#000000" stroke="#000000" points="908.7708,-49.8269 918.3692,-45.3412 908.0685,-42.8622 908.7708,-49.8269"/>
</g>
<!-- negated -->
<g id="node17" class="node">
<title>negated</title>
<polygon fill="#d3d3d3" stroke="#000000" points="951.2891,-91.3008 892.2166,-91.3008 892.2166,-66.6992 951.2891,-66.6992 951.2891,-91.3008"/>
<text text-anchor="middle" x="921.7529" y="-74.8" font-family="Times,serif" font-size="14.00" fill="#000000">negated</text>
</g>
<!-- literal&#45;&gt;negated -->
<g id="edge15" class="edge">
<title>literal-&gt;negated</title>
<path fill="none" stroke="#000000" d="M824.9447,-65.0549C843.0925,-67.6691 864.2139,-70.7116 882.0889,-73.2865"/>
<polygon fill="#000000" stroke="#000000" points="881.7943,-76.7801 892.1912,-74.7417 882.7924,-69.8516 881.7943,-76.7801"/>
<text text-anchor="middle" x="848.5748" y="-73.2" font-family="Times,serif" font-size="14.00" fill="#000000">?</text>
</g>
<!-- literal_xor&#45;&gt;atom -->
<g id="edge16" class="edge">
<title>literal_xor-&gt;atom</title>
<path fill="none" stroke="#000000" d="M924.9531,-45.3489C933.3385,-46.3561 956.4972,-49.7411 973.8236,-58 997.9314,-69.4913 1054.3293,-114.2457 1088.422,-142.1057"/>
<polygon fill="#000000" stroke="#000000" points="1086.6245,-145.1581 1096.5759,-148.7943 1091.0641,-139.746 1086.6245,-145.1581"/>
</g>
<!-- literal_xor&#45;&gt;comparison -->
<g id="edge17" class="edge">
<title>literal_xor-&gt;comparison</title>
<path fill="none" stroke="#000000" d="M925.4609,-45.0382C939.4601,-45.1823 990.6315,-45.709 1036.4298,-46.1804"/>
<polygon fill="#000000" stroke="#000000" points="1036.6748,-49.683 1046.7104,-46.2862 1036.747,-42.6833 1036.6748,-49.683"/>
<text text-anchor="middle" x="1010.2861" y="-51.2" font-family="Times,serif" font-size="14.00" fill="#000000">?</text>
</g>
<!-- term_xor -->
<g id="node19" class="node">
<title>term_xor</title>
<polygon fill="#d3d3d3" stroke="#000000" points="1492.7213,-96.5 1489.2213,-93 1492.7213,-89.5 1496.2213,-93 1492.7213,-96.5"/>
</g>
<!-- term&#45;&gt;term_xor -->
<g id="edge32" class="edge">
<title>term-&gt;term_xor</title>
<path fill="none" stroke="#000000" d="M1345.6923,-93C1386.7502,-93 1451.1152,-93 1479.0375,-93"/>
<polygon fill="#000000" stroke="#000000" points="1479.0878,-96.5001 1489.0877,-93 1479.0877,-89.5001 1479.0878,-96.5001"/>
</g>
<!-- constant -->
<g id="node20" class="node">
<title>constant</title>
<ellipse fill="none" stroke="#000000" cx="1660.2629" cy="-141" rx="66.0723" ry="18"/>
<text text-anchor="start" x="1620.2145" y="-137.8" font-family="Times,serif" font-style="italic" font-size="14.00" fill="#000000">c</text>
<text text-anchor="start" x="1626.4291" y="-137.8" font-family="Times,serif" font-size="14.00" fill="#000000">∊</text>
<text text-anchor="start" x="1636.9291" y="-137.8" font-family="Times,serif" font-style="italic" font-size="14.00" fill="#000000">C</text>
<text text-anchor="start" x="1646.2657" y="-137.8" font-family="Times,serif" font-size="14.00" fill="#000000">: constant</text>
</g>
<!-- term_xor&#45;&gt;constant -->
<g id="edge33" class="edge">
<title>term_xor-&gt;constant</title>
<path fill="none" stroke="#000000" d="M1495.6293,-93.8331C1508.5696,-97.5405 1562.1541,-112.8922 1604.7239,-125.0883"/>
<polygon fill="#000000" stroke="#000000" points="1603.8696,-128.4843 1614.4468,-127.8739 1605.7975,-121.755 1603.8696,-128.4843"/>
</g>
<!-- variable -->
<g id="node21" class="node">
<title>variable</title>
<polygon fill="none" stroke="#000000" points="1708.3457,-62.3008 1612.1801,-62.3008 1612.1801,-37.6992 1708.3457,-37.6992 1708.3457,-62.3008"/>
<text text-anchor="start" x="1620.2215" y="-46.8" font-family="Times,serif" font-style="italic" font-size="14.00" fill="#000000">v</text>
<text text-anchor="start" x="1627.2215" y="-46.8" font-family="Times,serif" font-size="14.00" fill="#000000">∊</text>
<text text-anchor="start" x="1637.7215" y="-46.8" font-family="Times,serif" font-style="italic" font-size="14.00" fill="#000000">V</text>
<text text-anchor="start" x="1647.8281" y="-46.8" font-family="Times,serif" font-size="14.00" fill="#000000">: variable</text>
</g>
<!-- term_xor&#45;&gt;variable -->
<g id="edge34" class="edge">
<title>term_xor-&gt;variable</title>
<path fill="none" stroke="#000000" d="M1495.6293,-92.2537C1508.301,-89.0014 1559.9471,-75.7463 1602.0592,-64.9381"/>
<polygon fill="#000000" stroke="#000000" points="1603.1626,-68.2685 1611.9786,-62.3923 1601.4224,-61.4882 1603.1626,-68.2685"/>
</g>
<!-- anonymous -->
<g id="node22" class="node">
<title>anonymous</title>
<polygon fill="none" stroke="#000000" points="1707.7033,-105.3008 1612.8225,-105.3008 1612.8225,-80.6992 1707.7033,-80.6992 1707.7033,-105.3008"/>
<text text-anchor="start" x="1620.7927" y="-88.8" font-family="Times,serif" font-size="14.00" fill="#000000">_: anonymous</text>
</g>
<!-- term_xor&#45;&gt;anonymous -->
<g id="edge35" class="edge">
<title>term_xor-&gt;anonymous</title>
<path fill="none" stroke="#000000" d="M1496.5354,-93C1510.635,-93 1561.1257,-93 1602.3521,-93"/>
<polygon fill="#000000" stroke="#000000" points="1602.606,-96.5001 1612.6059,-93 1602.6059,-89.5001 1602.606,-96.5001"/>
</g>
<!-- constant_xor -->
<g id="node23" class="node">
<title>constant_xor</title>
<polygon fill="#d3d3d3" stroke="#000000" points="1802.4572,-144.5 1798.9572,-141 1802.4572,-137.5 1805.9572,-141 1802.4572,-144.5"/>
</g>
<!-- constant&#45;&gt;constant_xor -->
<g id="edge37" class="edge">
<title>constant-&gt;constant_xor</title>
<path fill="none" stroke="#000000" d="M1726.7805,-141C1750.2603,-141 1774.409,-141 1788.9263,-141"/>
<polygon fill="#000000" stroke="#000000" points="1788.9456,-144.5001 1798.9456,-141 1788.9456,-137.5001 1788.9456,-144.5001"/>
</g>
<!-- constant&#45;&gt;type -->
<g id="edge36" class="edge">
<title>constant-&gt;type</title>
<path fill="none" stroke="#000000" d="M1704.0861,-154.5605C1719.7639,-159.4117 1737.5271,-164.9083 1753.6031,-169.8828"/>
<polygon fill="#000000" stroke="#000000" points="1752.7732,-173.2897 1763.361,-172.9022 1754.8425,-166.6025 1752.7732,-173.2897"/>
</g>
<!-- string -->
<g id="node24" class="node">
<title>string</title>
<polygon fill="none" stroke="#000000" points="1944.4648,-239.3008 1896.6917,-239.3008 1896.6917,-214.6992 1944.4648,-214.6992 1944.4648,-239.3008"/>
<text text-anchor="middle" x="1920.5782" y="-222.8" font-family="Times,serif" font-size="14.00" fill="#000000">string</text>
</g>
<!-- constant_xor&#45;&gt;string -->
<g id="edge41" class="edge">
<title>constant_xor-&gt;string</title>
<path fill="none" stroke="#000000" d="M1805.087,-142.2074C1811.6234,-145.2792 1828.9716,-153.8692 1841.3657,-164 1860.3701,-179.5339 1858.9532,-189.9792 1878.3657,-205 1881.2824,-207.2568 1884.4649,-209.3954 1887.732,-211.3882"/>
<polygon fill="#000000" stroke="#000000" points="1886.0229,-214.4426 1896.4529,-216.3046 1889.4605,-208.3448 1886.0229,-214.4426"/>
</g>
<!-- integer -->
<g id="node25" class="node">
<title>integer</title>
<polygon fill="none" stroke="#000000" points="1956.1775,-196.3008 1884.9789,-196.3008 1884.9789,-171.6992 1956.1775,-171.6992 1956.1775,-196.3008"/>
<text text-anchor="start" x="1892.7791" y="-179.8" font-family="Times,serif" font-size="14.00" fill="#000000">ℤ: integer</text>
</g>
<!-- constant_xor&#45;&gt;integer -->
<g id="edge38" class="edge">
<title>constant_xor-&gt;integer</title>
<path fill="none" stroke="#000000" d="M1805.3771,-142.0629C1815.2924,-145.6724 1848.6287,-157.808 1876.906,-168.1019"/>
<polygon fill="#000000" stroke="#000000" points="1876.0564,-171.5172 1886.6504,-171.6491 1878.4509,-164.9395 1876.0564,-171.5172"/>
</g>
<!-- decimal -->
<g id="node26" class="node">
<title>decimal</title>
<polygon fill="#d3d3d3" stroke="#000000" points="1950.8947,-153.3008 1890.2618,-153.3008 1890.2618,-128.6992 1950.8947,-128.6992 1950.8947,-153.3008"/>
<text text-anchor="middle" x="1920.5782" y="-136.8" font-family="Times,serif" font-size="14.00" fill="#000000">decimal</text>
</g>
<!-- constant_xor&#45;&gt;decimal -->
<g id="edge39" class="edge">
<title>constant_xor-&gt;decimal</title>
<path fill="none" stroke="#000000" d="M1806.1219,-141C1817.2893,-141 1851.8554,-141 1880.1044,-141"/>
<polygon fill="#000000" stroke="#000000" points="1880.1712,-144.5001 1890.1711,-141 1880.1711,-137.5001 1880.1712,-144.5001"/>
</g>
<!-- float -->
<g id="node27" class="node">
<title>float</title>
<polygon fill="#d3d3d3" stroke="#000000" points="1950.1269,-110.3008 1891.0295,-110.3008 1891.0295,-85.6992 1950.1269,-85.6992 1950.1269,-110.3008"/>
<text text-anchor="start" x="1898.8047" y="-93.8" font-family="Times,serif" font-size="14.00" fill="#000000">ℝ: float</text>
</g>
<!-- constant_xor&#45;&gt;float -->
<g id="edge40" class="edge">
<title>constant_xor-&gt;float</title>
<path fill="none" stroke="#000000" d="M1805.3771,-139.9371C1815.8144,-136.1375 1852.2042,-122.8904 1881.3265,-112.2889"/>
<polygon fill="#000000" stroke="#000000" points="1882.6767,-115.5222 1890.8762,-108.8125 1880.2821,-108.9445 1882.6767,-115.5222"/>
</g>
<!-- boolean -->
<g id="node28" class="node">
<title>boolean</title>
<polygon fill="none" stroke="#000000" points="1963.0043,-67.3008 1878.1521,-67.3008 1878.1521,-42.6992 1963.0043,-42.6992 1963.0043,-67.3008"/>
<text text-anchor="start" x="1886.3657" y="-50.8" font-family="Times,serif" font-size="14.00" fill="#000000">𝔹: boolean</text>
</g>
<!-- constant_xor&#45;&gt;boolean -->
<g id="edge42" class="edge">
<title>constant_xor-&gt;boolean</title>
<path fill="none" stroke="#000000" d="M1804.2154,-139.2577C1812.2297,-131.3743 1846.2914,-98.4971 1878.3657,-77 1880.747,-75.404 1883.2579,-73.8366 1885.8197,-72.3194"/>
<polygon fill="#000000" stroke="#000000" points="1887.6035,-75.3319 1894.6108,-67.3853 1884.1774,-69.2276 1887.6035,-75.3319"/>
</g>
</g>
</svg>