<?xml version="1.0" encoding="UTF-8" standalone="no"?><!DOCTYPE svg PUBLIC "-//W3C//DTD SVG 1.1//EN" "http://www.w3.org/Graphics/SVG/1.1/DTD/svg11.dtd"><!-- Generated by graphviz version 2.40.1 (20161225.0304)
 --><!-- Title: G Pages: 1 --><svg xmlns="http://www.w3.org/2000/svg" xmlns:xlink="http://www.w3.org/1999/xlink" width="1508pt" height="296pt" viewBox="0.00 0.00 1507.76 295.60">
<g id="graph0" class="graph" transform="scale(1 1) rotate(0) translate(7.2 288.4)">
<title>G</title>
<polygon fill="#ffffff" stroke="transparent" points="-7.2,7.2 -7.2,-288.4 1500.5594,-288.4 1500.5594,7.2 -7.2,7.2"/>
<!-- comparison -->
<g id="node1" class="node">
<title>comparison</title>
<ellipse fill="#d3d3d3" stroke="#000000" cx="993.6333" cy="-106.4" rx="51.3946" ry="29.3315"/>
<text text-anchor="middle" x="993.6333" y="-110.6" font-family="Times,serif" font-size="14.00" fill="#000000">arithmetic</text>
<text text-anchor="middle" x="993.6333" y="-93.8" font-family="Times,serif" font-size="14.00" fill="#000000">literal</text>
</g>
<!-- operator -->
<g id="node2" class="node">
<title>operator</title>
<ellipse fill="#d3d3d3" stroke="#000000" cx="1141.3944" cy="-73.4" rx="43.4183" ry="18"/>
<text text-anchor="middle" x="1141.3944" y="-69.2" font-family="Times,serif" font-size="14.00" fill="#000000">operator</text>
</g>
<!-- comparison&#45;&gt;operator -->
<g id="edge17" class="edge">
<title>comparison-&gt;operator</title>
<path fill="none" stroke="#000000" d="M1039.8091,-93.143C1047.5494,-91.1004 1055.5208,-89.1062 1063.0806,-87.4 1072.0842,-85.3679 1081.7238,-83.4427 1091.0539,-81.7071"/>
<polygon fill="#000000" stroke="#000000" points="1091.7963,-85.1297 1101.0117,-79.9021 1090.5477,-78.2419 1091.7963,-85.1297"/>
</g>
<!-- term -->
<g id="node22" class="node">
<title>term</title>
<ellipse fill="none" stroke="#000000" cx="1141.3944" cy="-146.4" rx="28.9696" ry="18"/>
<text text-anchor="middle" x="1141.3944" y="-142.2" font-family="Times,serif" font-size="14.00" fill="#000000">term</text>
</g>
<!-- comparison&#45;&gt;term -->
<g id="edge15" class="edge">
<title>comparison-&gt;term</title>
<path fill="none" stroke="#000000" d="M1040.3859,-119.0563C1061.2656,-124.7086 1085.5024,-131.2696 1105.0003,-136.5478"/>
<polygon fill="#000000" stroke="#000000" points="1104.1544,-139.9448 1114.7216,-139.1795 1105.9836,-133.188 1104.1544,-139.9448"/>
<text text-anchor="middle" x="1071.6332" y="-133.6" font-family="Times,serif" font-size="14.00" fill="#000000">lhs</text>
</g>
<!-- comparison&#45;&gt;term -->
<g id="edge16" class="edge">
<title>comparison-&gt;term</title>
<path fill="none" stroke="#000000" d="M1044.276,-99.9831C1056.2559,-99.9259 1068.8411,-101.0959 1080.1858,-104.6 1093.5737,-108.7353 1106.6467,-116.9153 1117.2504,-124.9511"/>
<polygon fill="#000000" stroke="#000000" points="1115.1851,-127.7808 1125.1838,-131.2846 1119.5524,-122.3103 1115.1851,-127.7808"/>
<text text-anchor="middle" x="1071.6332" y="-109.6" font-family="Times,serif" font-size="14.00" fill="#000000">rhs</text>
</g>
<!-- negated -->
<g id="node3" class="node">
<title>negated</title>
<polygon fill="#d3d3d3" stroke="#000000" points="899.8465,-152.7008 834.3475,-152.7008 834.3475,-128.0992 899.8465,-128.0992 899.8465,-152.7008"/>
<text text-anchor="middle" x="867.097" y="-136.2" font-family="Times,serif" font-size="14.00" fill="#000000">negated?</text>
</g>
<!-- boolean -->
<g id="node4" class="node">
<title>boolean</title>
<polygon fill="none" stroke="#000000" points="1493.5201,-196.7008 1432.8788,-196.7008 1432.8788,-172.0992 1493.5201,-172.0992 1493.5201,-196.7008"/>
<text text-anchor="middle" x="1463.1995" y="-180.2" font-family="Times,serif" font-size="14.00" fill="#000000">boolean</text>
</g>
<!-- string -->
<g id="node5" class="node">
<title>string</title>
<polygon fill="none" stroke="#000000" points="1487.086,-153.7008 1439.3129,-153.7008 1439.3129,-129.0992 1487.086,-129.0992 1487.086,-153.7008"/>
<text text-anchor="middle" x="1463.1995" y="-137.2" font-family="Times,serif" font-size="14.00" fill="#000000">string</text>
</g>
<!-- integer -->
<g id="node6" class="node">
<title>integer</title>
<polygon fill="none" stroke="#000000" points="1490.5706,-110.7008 1435.8283,-110.7008 1435.8283,-86.0992 1490.5706,-86.0992 1490.5706,-110.7008"/>
<text text-anchor="middle" x="1463.1995" y="-94.2" font-family="Times,serif" font-size="14.00" fill="#000000">integer</text>
</g>
<!-- decimal -->
<g id="node7" class="node">
<title>decimal</title>
<polygon fill="#d3d3d3" stroke="#000000" points="1493.5159,-67.7008 1432.883,-67.7008 1432.883,-43.0992 1493.5159,-43.0992 1493.5159,-67.7008"/>
<text text-anchor="middle" x="1463.1995" y="-51.2" font-family="Times,serif" font-size="14.00" fill="#000000">decimal</text>
</g>
<!-- float -->
<g id="node8" class="node">
<title>float</title>
<polygon fill="#d3d3d3" stroke="#000000" points="1483.8573,-24.7008 1442.5417,-24.7008 1442.5417,-.0992 1483.8573,-.0992 1483.8573,-24.7008"/>
<text text-anchor="middle" x="1463.1995" y="-8.2" font-family="Times,serif" font-size="14.00" fill="#000000">float</text>
</g>
<!-- variable -->
<g id="node9" class="node">
<title>variable</title>
<polygon fill="none" stroke="#000000" points="1339.407,-201.7008 1278.2356,-201.7008 1278.2356,-177.0992 1339.407,-177.0992 1339.407,-201.7008"/>
<text text-anchor="middle" x="1308.8213" y="-185.2" font-family="Times,serif" font-size="14.00" fill="#000000">variable</text>
</g>
<!-- anonymous -->
<g id="node10" class="node">
<title>anonymous</title>
<polygon fill="none" stroke="#000000" points="1348.8723,-158.7008 1268.7702,-158.7008 1268.7702,-134.0992 1348.8723,-134.0992 1348.8723,-158.7008"/>
<text text-anchor="middle" x="1308.8213" y="-142.2" font-family="Times,serif" font-size="14.00" fill="#000000">anonymous</text>
</g>
<!-- predicate -->
<g id="node11" class="node">
<title>predicate</title>
<polygon fill="none" stroke="#000000" points="1175.1953,-258.7008 1107.5935,-258.7008 1107.5935,-234.0992 1175.1953,-234.0992 1175.1953,-258.7008"/>
<text text-anchor="middle" x="1141.3944" y="-242.2" font-family="Times,serif" font-size="14.00" fill="#000000">predicate</text>
</g>
<!-- program -->
<g id="node12" class="node">
<title>program</title>
<ellipse fill="none" stroke="#000000" cx="43.7504" cy="-219.4" rx="43.5022" ry="18"/>
<text text-anchor="middle" x="43.7504" y="-215.2" font-family="Times,serif" font-size="14.00" fill="#000000">program</text>
</g>
<!-- edb -->
<g id="node13" class="node">
<title>edb</title>
<ellipse fill="none" stroke="#000000" cx="223.5007" cy="-242.4" rx="27" ry="18"/>
<text text-anchor="middle" x="223.5007" y="-238.2" font-family="Times,serif" font-size="14.00" fill="#000000">edb</text>
</g>
<!-- program&#45;&gt;edb -->
<g id="edge1" class="edge">
<title>program-&gt;edb</title>
<path fill="none" stroke="#000000" d="M85.8939,-224.7925C116.4841,-228.7067 157.4672,-233.9507 186.734,-237.6955"/>
<polygon fill="#000000" stroke="#000000" points="186.5821,-241.2045 196.9455,-239.0021 187.4706,-234.2611 186.5821,-241.2045"/>
</g>
<!-- idb -->
<g id="node14" class="node">
<title>idb</title>
<ellipse fill="none" stroke="#000000" cx="151.5007" cy="-196.4" rx="27" ry="18"/>
<text text-anchor="middle" x="151.5007" y="-192.2" font-family="Times,serif" font-size="14.00" fill="#000000">idb</text>
</g>
<!-- program&#45;&gt;idb -->
<g id="edge2" class="edge">
<title>program-&gt;idb</title>
<path fill="none" stroke="#000000" d="M82.6507,-211.0965C93.5229,-208.7757 105.279,-206.2663 115.947,-203.9892"/>
<polygon fill="#000000" stroke="#000000" points="116.7284,-207.4013 125.7774,-201.8908 115.2671,-200.5555 116.7284,-207.4013"/>
</g>
<!-- relation -->
<g id="node15" class="node">
<title>relation</title>
<ellipse fill="none" stroke="#000000" cx="381.0334" cy="-226.4" rx="40.5654" ry="18"/>
<text text-anchor="middle" x="381.0334" y="-222.2" font-family="Times,serif" font-size="14.00" fill="#000000">relation</text>
</g>
<!-- edb&#45;&gt;relation -->
<g id="edge3" class="edge">
<title>edb-&gt;relation</title>
<path fill="none" stroke="#000000" d="M250.224,-239.6858C272.408,-237.4327 304.5611,-234.167 331.4376,-231.4373"/>
<polygon fill="#000000" stroke="#000000" points="331.853,-234.9132 341.4481,-230.4205 331.1456,-227.949 331.853,-234.9132"/>
<text text-anchor="middle" x="295.5007" y="-241.6" font-family="Times,serif" font-size="14.00" fill="#000000">*</text>
</g>
<!-- idb&#45;&gt;relation -->
<g id="edge4" class="edge">
<title>idb-&gt;relation</title>
<path fill="none" stroke="#000000" d="M178.4866,-195.6389C198.4446,-195.4061 226.2526,-195.7738 250.5007,-198.6 279.3249,-201.9595 311.1886,-208.6858 336.2186,-214.6805"/>
<polygon fill="#000000" stroke="#000000" points="335.6045,-218.1333 346.1494,-217.1059 337.2654,-211.3332 335.6045,-218.1333"/>
<text text-anchor="middle" x="223.5007" y="-202.6" font-family="Times,serif" font-size="14.00" fill="#000000">*</text>
</g>
<!-- rule -->
<g id="node16" class="node">
<title>rule</title>
<ellipse fill="none" stroke="#000000" cx="295.5007" cy="-150.4" rx="27" ry="18"/>
<text text-anchor="middle" x="295.5007" y="-146.2" font-family="Times,serif" font-size="14.00" fill="#000000">rule</text>
</g>
<!-- idb&#45;&gt;rule -->
<g id="edge5" class="edge">
<title>idb-&gt;rule</title>
<path fill="none" stroke="#000000" d="M165.2359,-180.3875C173.4006,-172.0433 184.4894,-162.5664 196.5007,-157.6 215.8499,-149.5995 239.1326,-147.5714 258.2566,-147.6487"/>
<polygon fill="#000000" stroke="#000000" points="258.3234,-151.1511 268.4018,-147.8837 258.4856,-144.153 258.3234,-151.1511"/>
<text text-anchor="middle" x="223.5007" y="-161.6" font-family="Times,serif" font-size="14.00" fill="#000000">*</text>
</g>
<!-- relation&#45;&gt;predicate -->
<g id="edge18" class="edge">
<title>relation-&gt;predicate</title>
<path fill="none" stroke="#000000" stroke-dasharray="5,2" d="M413.1055,-237.4933C448.4413,-248.7095 507.1706,-264.4 559.1968,-264.4 559.1968,-264.4 559.1968,-264.4 993.6333,-264.4 1032.9141,-264.4 1077.6405,-258.0543 1107.4978,-252.8984"/>
<text text-anchor="middle" x="758.4485" y="-268.6" font-family="Times,serif" font-size="14.00" fill="#000000">derived</text>
</g>
<!-- atom -->
<g id="node18" class="node">
<title>atom</title>
<ellipse fill="none" stroke="#000000" cx="993.6333" cy="-186.4" rx="30.1958" ry="18"/>
<text text-anchor="middle" x="993.6333" y="-182.2" font-family="Times,serif" font-size="14.00" fill="#000000">atom</text>
</g>
<!-- relation&#45;&gt;atom -->
<g id="edge19" class="edge">
<title>relation-&gt;atom</title>
<path fill="none" stroke="#000000" d="M421.3428,-223.557C457.4382,-221.2575 511.8245,-218.4 559.1968,-218.4 559.1968,-218.4 559.1968,-218.4 867.097,-218.4 898.9038,-218.4 933.8729,-208.7794 958.974,-200.0884"/>
<polygon fill="#000000" stroke="#000000" points="960.1867,-203.3718 968.4179,-196.7011 957.8234,-196.7828 960.1867,-203.3718"/>
<text text-anchor="middle" x="702.9418" y="-222.6" font-family="Times,serif" font-size="14.00" fill="#000000">*</text>
</g>
<!-- head -->
<g id="node17" class="node">
<title>head</title>
<ellipse fill="none" stroke="#000000" cx="468.833" cy="-168.4" rx="29.0356" ry="18"/>
<text text-anchor="middle" x="468.833" y="-164.2" font-family="Times,serif" font-size="14.00" fill="#000000">head</text>
</g>
<!-- rule&#45;&gt;head -->
<g id="edge6" class="edge">
<title>rule-&gt;head</title>
<path fill="none" stroke="#000000" d="M322.204,-153.1731C350.91,-156.1541 396.8308,-160.9228 429.633,-164.3292"/>
<polygon fill="#000000" stroke="#000000" points="429.4756,-167.8316 439.7837,-165.3833 430.1987,-160.869 429.4756,-167.8316"/>
<text text-anchor="middle" x="381.0334" y="-166.6" font-family="Times,serif" font-size="14.00" fill="#000000">?/*</text>
</g>
<!-- body -->
<g id="node19" class="node">
<title>body</title>
<ellipse fill="none" stroke="#000000" cx="650.6441" cy="-124.4" rx="30.2015" ry="18"/>
<text text-anchor="middle" x="650.6441" y="-120.2" font-family="Times,serif" font-size="14.00" fill="#000000">body</text>
</g>
<!-- rule&#45;&gt;body -->
<g id="edge8" class="edge">
<title>rule-&gt;body</title>
<path fill="none" stroke="#000000" d="M321.0804,-144.4093C349.7407,-138.0279 397.6805,-128.341 439.5661,-124.6 498.6195,-119.3257 567.3373,-120.6381 609.9174,-122.3184"/>
<polygon fill="#000000" stroke="#000000" points="610.0195,-125.8257 620.1579,-122.7497 610.3141,-118.8319 610.0195,-125.8257"/>
<text text-anchor="middle" x="468.833" y="-129.6" font-family="Times,serif" font-size="14.00" fill="#000000">?</text>
</g>
<!-- head&#45;&gt;atom -->
<g id="edge7" class="edge">
<title>head-&gt;atom</title>
<path fill="none" stroke="#000000" d="M497.7636,-171.4903C533.6023,-175.0458 596.5515,-180.4 650.6441,-180.4 650.6441,-180.4 650.6441,-180.4 867.097,-180.4 895.9625,-180.4 928.4905,-181.9771 953.338,-183.5142"/>
<polygon fill="#000000" stroke="#000000" points="953.2798,-187.0176 963.4836,-184.1658 953.7285,-180.032 953.2798,-187.0176"/>
</g>
<!-- head&#45;&gt;body -->
<g id="edge10" class="edge">
<title>head-&gt;body</title>
<path fill="none" stroke="#000000" stroke-dasharray="5,2" d="M493.0512,-157.7256C500.3568,-154.7906 508.4653,-151.8107 516.0999,-149.6 551.4815,-139.3547 593.341,-132.2777 620.8635,-128.2882"/>
<text text-anchor="middle" x="559.1968" y="-153.6" font-family="Times,serif" font-size="14.00" fill="#000000">|head|+|tail|&gt;=1</text>
</g>
<!-- atom&#45;&gt;predicate -->
<g id="edge21" class="edge">
<title>atom-&gt;predicate</title>
<path fill="none" stroke="#000000" d="M1018.699,-196.5782C1041.4319,-205.8091 1075.3257,-219.5721 1101.733,-230.295"/>
<polygon fill="#000000" stroke="#000000" points="1100.5066,-233.5746 1111.0887,-234.094 1103.1403,-227.0889 1100.5066,-233.5746"/>
</g>
<!-- atom&#45;&gt;term -->
<g id="edge20" class="edge">
<title>atom-&gt;term</title>
<path fill="none" stroke="#000000" d="M1021.4261,-178.8763C1045.0428,-172.4831 1079.1209,-163.2579 1104.9262,-156.2722"/>
<polygon fill="#000000" stroke="#000000" points="1105.9836,-159.612 1114.7216,-153.6205 1104.1544,-152.8552 1105.9836,-159.612"/>
<text text-anchor="middle" x="1071.6332" y="-171.6" font-family="Times,serif" font-size="14.00" fill="#000000">+</text>
</g>
<!-- literal -->
<g id="node20" class="node">
<title>literal</title>
<ellipse fill="none" stroke="#000000" cx="758.4485" cy="-124.4" rx="33.6189" ry="18"/>
<text text-anchor="middle" x="758.4485" y="-120.2" font-family="Times,serif" font-size="14.00" fill="#000000">literal</text>
</g>
<!-- body&#45;&gt;literal -->
<g id="edge9" class="edge">
<title>body-&gt;literal</title>
<path fill="none" stroke="#000000" d="M681.2481,-124.4C691.6379,-124.4 703.4578,-124.4 714.6713,-124.4"/>
<polygon fill="#000000" stroke="#000000" points="714.7405,-127.9001 724.7404,-124.4 714.7404,-120.9001 714.7405,-127.9001"/>
<text text-anchor="middle" x="702.9418" y="-128.6" font-family="Times,serif" font-size="14.00" fill="#000000">+</text>
</g>
<!-- literal&#45;&gt;negated -->
<g id="edge12" class="edge">
<title>literal-&gt;negated</title>
<path fill="none" stroke="#000000" d="M791.0466,-129.2005C801.4793,-130.7369 813.1918,-132.4617 824.2412,-134.0889"/>
<polygon fill="#000000" stroke="#000000" points="823.7431,-137.5532 834.1463,-135.5476 824.763,-130.6279 823.7431,-137.5532"/>
<text text-anchor="middle" x="813.1152" y="-137.6" font-family="Times,serif" font-size="14.00" fill="#000000">?</text>
</g>
<!-- xor3 -->
<g id="node21" class="node">
<title>xor3</title>
<polygon fill="#d3d3d3" stroke="#000000" points="867.097,-109.9 863.597,-106.4 867.097,-102.9 870.597,-106.4 867.097,-109.9"/>
</g>
<!-- literal&#45;&gt;xor3 -->
<g id="edge11" class="edge">
<title>literal-&gt;xor3</title>
<path fill="none" stroke="#000000" d="M790.7524,-119.0481C811.8637,-115.5506 838.3158,-111.1682 853.8944,-108.5873"/>
<polygon fill="#000000" stroke="#000000" points="854.7735,-111.9894 864.067,-106.902 853.6294,-105.0836 854.7735,-111.9894"/>
</g>
<!-- xor3&#45;&gt;comparison -->
<g id="edge14" class="edge">
<title>xor3-&gt;comparison</title>
<path fill="none" stroke="#000000" d="M870.7475,-106.4C880.12,-106.4 906.1029,-106.4 931.7759,-106.4"/>
<polygon fill="#000000" stroke="#000000" points="931.9437,-109.9001 941.9437,-106.4 931.9437,-102.9001 931.9437,-109.9001"/>
<text text-anchor="middle" x="921.0788" y="-110.6" font-family="Times,serif" font-size="14.00" fill="#000000">?</text>
</g>
<!-- xor3&#45;&gt;atom -->
<g id="edge13" class="edge">
<title>xor3-&gt;atom</title>
<path fill="none" stroke="#000000" d="M869.9272,-107.2594C875.7492,-109.0824 889.4076,-113.6459 899.9715,-119.4 924.1127,-132.5495 949.3411,-150.9022 967.5245,-165.0752"/>
<polygon fill="#000000" stroke="#000000" points="965.8339,-168.2003 975.8493,-171.656 970.1749,-162.7088 965.8339,-168.2003"/>
</g>
<!-- xor2 -->
<g id="node23" class="node">
<title>xor2</title>
<polygon fill="#d3d3d3" stroke="#000000" points="1225.103,-149.9 1221.603,-146.4 1225.103,-142.9 1228.603,-146.4 1225.103,-149.9"/>
</g>
<!-- term&#45;&gt;xor2 -->
<g id="edge22" class="edge">
<title>term-&gt;xor2</title>
<path fill="none" stroke="#000000" d="M1170.2022,-146.4C1184.0841,-146.4 1200.0935,-146.4 1211.2284,-146.4"/>
<polygon fill="#000000" stroke="#000000" points="1211.3556,-149.9001 1221.3556,-146.4 1211.3555,-142.9001 1211.3556,-149.9001"/>
</g>
<!-- xor2&#45;&gt;variable -->
<g id="edge24" class="edge">
<title>xor2-&gt;variable</title>
<path fill="none" stroke="#000000" d="M1227.2982,-147.9785C1231.1182,-150.6909 1239.2811,-156.3363 1246.603,-160.4 1254.3172,-164.6814 1262.773,-168.9118 1270.8962,-172.7626"/>
<polygon fill="#000000" stroke="#000000" points="1269.6711,-176.0526 1280.2151,-177.0891 1272.6188,-169.7035 1269.6711,-176.0526"/>
</g>
<!-- xor2&#45;&gt;anonymous -->
<g id="edge25" class="edge">
<title>xor2-&gt;anonymous</title>
<path fill="none" stroke="#000000" d="M1228.7003,-146.4C1234.2815,-146.4 1245.6944,-146.4 1258.1996,-146.4"/>
<polygon fill="#000000" stroke="#000000" points="1258.3722,-149.9001 1268.3722,-146.4 1258.3722,-142.9001 1258.3722,-149.9001"/>
</g>
<!-- constant -->
<g id="node24" class="node">
<title>constant</title>
<ellipse fill="none" stroke="#000000" cx="1308.8213" cy="-98.4" rx="43.4377" ry="18"/>
<text text-anchor="middle" x="1308.8213" y="-94.2" font-family="Times,serif" font-size="14.00" fill="#000000">constant</text>
</g>
<!-- xor2&#45;&gt;constant -->
<g id="edge23" class="edge">
<title>xor2-&gt;constant</title>
<path fill="none" stroke="#000000" d="M1227.5183,-145.0152C1234.5078,-141.0078 1255.4599,-128.9948 1274.3428,-118.1683"/>
<polygon fill="#000000" stroke="#000000" points="1276.1605,-121.1606 1283.0949,-113.1503 1272.6787,-115.088 1276.1605,-121.1606"/>
</g>
<!-- xor1 -->
<g id="node25" class="node">
<title>xor1</title>
<polygon fill="#d3d3d3" stroke="#000000" points="1392.5396,-101.9 1389.0396,-98.4 1392.5396,-94.9 1396.0396,-98.4 1392.5396,-101.9"/>
</g>
<!-- constant&#45;&gt;xor1 -->
<g id="edge26" class="edge">
<title>constant-&gt;xor1</title>
<path fill="none" stroke="#000000" d="M1352.1518,-98.4C1361.7622,-98.4 1371.2691,-98.4 1378.6428,-98.4"/>
<polygon fill="#000000" stroke="#000000" points="1378.68,-101.9001 1388.68,-98.4 1378.6799,-94.9001 1378.68,-101.9001"/>
</g>
<!-- xor1&#45;&gt;boolean -->
<g id="edge31" class="edge">
<title>xor1-&gt;boolean</title>
<path fill="none" stroke="#000000" d="M1393.7753,-101.0805C1398.1416,-110.3578 1413.6302,-141.6651 1433.0396,-162.4 1433.9365,-163.3581 1434.8802,-164.3024 1435.8577,-165.2289"/>
<polygon fill="#000000" stroke="#000000" points="1433.8953,-168.1523 1443.7969,-171.9216 1438.407,-162.8002 1433.8953,-168.1523"/>
</g>
<!-- xor1&#45;&gt;string -->
<g id="edge30" class="edge">
<title>xor1-&gt;string</title>
<path fill="none" stroke="#000000" d="M1394.7782,-99.9045C1398.6637,-102.5052 1406.9229,-107.9868 1414.0396,-112.4 1420.0371,-116.1192 1426.5023,-120.0135 1432.7109,-123.6976"/>
<polygon fill="#000000" stroke="#000000" points="1431.1467,-126.8383 1441.539,-128.8999 1434.7006,-120.8075 1431.1467,-126.8383"/>
</g>
<!-- xor1&#45;&gt;integer -->
<g id="edge27" class="edge">
<title>xor1-&gt;integer</title>
<path fill="none" stroke="#000000" d="M1396.3386,-98.4C1402.0587,-98.4 1413.4761,-98.4 1425.281,-98.4"/>
<polygon fill="#000000" stroke="#000000" points="1425.6213,-101.9001 1435.6212,-98.4 1425.6212,-94.9001 1425.6213,-101.9001"/>
</g>
<!-- xor1&#45;&gt;decimal -->
<g id="edge28" class="edge">
<title>xor1-&gt;decimal</title>
<path fill="none" stroke="#000000" d="M1394.8906,-96.9693C1401.056,-93.2173 1418.2944,-82.7269 1433.9101,-73.224"/>
<polygon fill="#000000" stroke="#000000" points="1436.0979,-75.9898 1442.821,-67.8013 1432.4589,-70.01 1436.0979,-75.9898"/>
</g>
<!-- xor1&#45;&gt;float -->
<g id="edge29" class="edge">
<title>xor1-&gt;float</title>
<path fill="none" stroke="#000000" d="M1393.7753,-95.7195C1398.1416,-86.4422 1413.6302,-55.1349 1433.0396,-34.4 1433.9365,-33.4419 1434.8802,-32.4976 1435.8577,-31.5711"/>
<polygon fill="#000000" stroke="#000000" points="1438.407,-33.9998 1443.7969,-24.8784 1433.8953,-28.6477 1438.407,-33.9998"/>
</g>
</g>
</svg>