<?xml version="1.0" encoding="UTF-8" standalone="no"?><!DOCTYPE svg PUBLIC "-//W3C//DTD SVG 1.1//EN" "http://www.w3.org/Graphics/SVG/1.1/DTD/svg11.dtd"><!-- Generated by graphviz version 2.40.1 (20161225.0304)
 --><!-- Title: G Pages: 1 --><svg xmlns="http://www.w3.org/2000/svg" xmlns:xlink="http://www.w3.org/1999/xlink" width="277pt" height="156pt" viewBox="0.00 0.00 277.22 155.50">
<g id="graph0" class="graph" transform="scale(1 1) rotate(0) translate(4 151.5)">
<title>G</title>
<polygon fill="#ffffff" stroke="transparent" points="-4,4 -4,-151.5 273.2165,-151.5 273.2165,4 -4,4"/>
<g id="clust1" class="cluster">
<title>cluster1</title>
<polygon fill="none" stroke="#000000" points="8,-8 8,-102 261.2165,-102 261.2165,-8 8,-8"/>
<text text-anchor="middle" x="134.6083" y="-89" font-family="Verdana" font-size="10.00" fill="#000000">processor</text>
</g>
<!-- application -->
<g id="node1" class="node">
<title>application</title>
<polygon fill="none" stroke="#000000" points="12.7835,-111 12.7835,-147 73.2165,-147 73.2165,-111 12.7835,-111"/>
<text text-anchor="middle" x="43" y="-126" font-family="Verdana" font-size="10.00" fill="#000000">application</text>
</g>
<!-- parser -->
<g id="node3" class="node">
<title>parser</title>
<polygon fill="none" stroke="#000000" points="109.2165,-17 109.2165,-53 163.2165,-53 163.2165,-17 109.2165,-17"/>
<text text-anchor="middle" x="136.2165" y="-32" font-family="Verdana" font-size="10.00" fill="#000000">parser</text>
</g>
<!-- application&#45;&gt;parser -->
<g id="edge4" class="edge">
<title>application:e-&gt;parser:w</title>
<path fill="none" stroke="#000000" d="M73,-129C85.1355,-129 90.0636,-122.0938 91.6917,-112.0253"/>
<polygon fill="#000000" stroke="#000000" points="95.1871,-112.2108 92.3712,-101.9971 88.2031,-111.7376 95.1871,-112.2108"/>
</g>
<!-- evaluator -->
<g id="node2" class="node">
<title>evaluator</title>
<polygon fill="none" stroke="#000000" stroke-dasharray="5,2" points="16,-27 16,-63 70,-63 70,-27 16,-27"/>
<text text-anchor="middle" x="43" y="-42" font-family="Verdana" font-size="10.00" fill="#000000">evaluator</text>
</g>
<!-- evaluator&#45;&gt;parser -->
<g id="edge1" class="edge">
<title>evaluator-&gt;parser</title>
<path fill="none" stroke="#000000" d="M70.4638,-42.0538C79.3771,-41.0976 89.4209,-40.0201 98.9257,-39.0004"/>
<polygon fill="#000000" stroke="#000000" points="99.3794,-42.472 108.9489,-37.9252 98.6326,-35.5119 99.3794,-42.472"/>
</g>
<!-- resolver -->
<g id="node4" class="node">
<title>resolver</title>
<polygon fill="none" stroke="#000000" points="199.2165,-27 199.2165,-63 253.2165,-63 253.2165,-27 199.2165,-27"/>
<text text-anchor="middle" x="226.2165" y="-42" font-family="Verdana" font-size="10.00" fill="#000000">resolver</text>
</g>
<!-- evaluator&#45;&gt;resolver -->
<g id="edge2" class="edge">
<title>evaluator-&gt;resolver</title>
<path fill="none" stroke="#000000" d="M70.0502,-54.0984C81.9195,-57.6338 96.1092,-61.2502 109.2165,-63 133.0055,-66.1757 139.4485,-66.3288 163.2165,-63 171.7992,-61.798 180.8533,-59.7171 189.338,-57.387"/>
<polygon fill="#000000" stroke="#000000" points="190.3553,-60.7362 198.9744,-54.5749 188.3943,-54.0165 190.3553,-60.7362"/>
</g>
<!-- parser&#45;&gt;resolver -->
<g id="edge3" class="edge">
<title>parser-&gt;resolver</title>
<path fill="none" stroke="#000000" d="M163.2195,-38.0003C171.2442,-38.892 180.183,-39.8852 188.7474,-40.8368"/>
<polygon fill="#000000" stroke="#000000" points="188.5961,-44.3414 198.9215,-41.9672 189.3692,-37.3842 188.5961,-44.3414"/>
</g>
</g>
</svg>