<?xml version="1.0" encoding="UTF-8" standalone="no"?><!DOCTYPE svg PUBLIC "-//W3C//DTD SVG 1.1//EN" "http://www.w3.org/Graphics/SVG/1.1/DTD/svg11.dtd"><!-- Generated by graphviz version 2.40.1 (20161225.0304)
 --><!-- Title: G Pages: 1 --><svg xmlns="http://www.w3.org/2000/svg" xmlns:xlink="http://www.w3.org/1999/xlink" width="277pt" height="136pt" viewBox="0.00 0.00 277.22 135.50">
<g id="graph0" class="graph" transform="scale(1 1) rotate(0) translate(4 131.5)">
<title>G</title>
<polygon fill="#ffffff" stroke="transparent" points="-4,4 -4,-131.5 273.2165,-131.5 273.2165,4 -4,4"/>
<g id="clust1" class="cluster">
<title>cluster1</title>
<polygon fill="none" stroke="#000000" points="8,-8 8,-82 261.2165,-82 261.2165,-8 8,-8"/>
<text text-anchor="middle" x="134.6083" y="-69" font-family="Verdana" font-size="10.00" fill="#000000">processor</text>
</g>
<!-- application -->
<g id="node1" class="node">
<title>application</title>
<polygon fill="none" stroke="#000000" points="12.7835,-91 12.7835,-127 73.2165,-127 73.2165,-91 12.7835,-91"/>
<text text-anchor="middle" x="43" y="-106" font-family="Verdana" font-size="10.00" fill="#000000">application</text>
</g>
<!-- parser -->
<g id="node3" class="node">
<title>parser</title>
<polygon fill="none" stroke="#000000" points="109.2165,-17 109.2165,-53 163.2165,-53 163.2165,-17 109.2165,-17"/>
<text text-anchor="middle" x="136.2165" y="-32" font-family="Verdana" font-size="10.00" fill="#000000">parser</text>
</g>
<!-- application&#45;&gt;parser -->
<g id="edge3" class="edge">
<title>application:e-&gt;parser:w</title>
<path fill="none" stroke="#000000" d="M73,-109C84.3474,-109 88.6233,-101.8932 90.2106,-92.0845"/>
<polygon fill="#000000" stroke="#000000" points="93.7087,-92.2523 91.0517,-81.9961 86.7329,-91.6707 93.7087,-92.2523"/>
</g>
<!-- evaluator -->
<g id="node2" class="node">
<title>evaluator</title>
<polygon fill="none" stroke="#000000" stroke-dasharray="5,2" points="16,-17 16,-53 70,-53 70,-17 16,-17"/>
<text text-anchor="middle" x="43" y="-32" font-family="Verdana" font-size="10.00" fill="#000000">evaluator</text>
</g>
<!-- evaluator&#45;&gt;parser -->
<g id="edge1" class="edge">
<title>evaluator-&gt;parser</title>
<path fill="none" stroke="#000000" d="M80.5004,-35C86.4458,-35 92.597,-35 98.5463,-35"/>
<polygon fill="#000000" stroke="#000000" points="80.4639,-31.5001 70.4638,-35 80.4638,-38.5001 80.4639,-31.5001"/>
<polygon fill="#000000" stroke="#000000" points="98.949,-38.5001 108.9489,-35 98.9489,-31.5001 98.949,-38.5001"/>
</g>
<!-- resolver -->
<g id="node4" class="node">
<title>resolver</title>
<polygon fill="none" stroke="#000000" points="199.2165,-17 199.2165,-53 253.2165,-53 253.2165,-17 199.2165,-17"/>
<text text-anchor="middle" x="226.2165" y="-32" font-family="Verdana" font-size="10.00" fill="#000000">resolver</text>
</g>
<!-- parser&#45;&gt;resolver -->
<g id="edge2" class="edge">
<title>parser-&gt;resolver</title>
<path fill="none" stroke="#000000" d="M163.2195,-35C171.2442,-35 180.183,-35 188.7474,-35"/>
<polygon fill="#000000" stroke="#000000" points="188.9216,-38.5001 198.9215,-35 188.9215,-31.5001 188.9216,-38.5001"/>
</g>
</g>
</svg>